<svg width="561" height="513" viewBox="0 0 561 513" fill="none" xmlns="http://www.w3.org/2000/svg">
<path d="M268.862 12.5984C276.417 -6.34625 304.158 -3.15428 307.213 17.0113L323.858 126.869C325.22 135.859 332.474 142.798 341.515 143.761L542.389 165.145C561.911 167.223 567.065 193.251 549.808 202.612L407.221 279.962C398.558 284.662 394.61 294.972 397.918 304.256L462.609 485.765C469.223 504.323 447.85 520.255 431.954 508.617L255.805 379.649C247.326 373.442 235.491 374.854 228.711 382.881L169.612 452.851C154.971 470.185 127.347 453.605 135.758 432.531L178.976 324.257C182.55 315.301 179.226 305.07 171.07 299.926L9.33997 197.919C-5.77723 188.384 -1.75042 165.32 15.7033 161.472L217.824 116.908C224.295 115.481 229.64 110.942 232.095 104.786L268.862 12.5984Z" fill="#274CAB"/>
</svg>
